<svg xmlns="http://www.w3.org/2000/svg" viewBox="0 0 48 48">
	<path d="M13.4 42.4c-7.1-4.1-9.3-5.6-9.7-6.3-.7-.8-.7-.8-.7-11.9 0-11.9 0-11.9 1.1-13 .4-.4 16.2-9.5 18.2-10.6 1.3-.6 2.2-.6 3.5 0 3.7 1.9 17.7 10.2 18.4 11 .8 1 .8 1 .8 12.2 0 12.3 0 12.1-1.3 13.2-.4.2-4.8 2.8-9.5 5.6-8.4 5-8.9 5.2-10.2 5.2-1.1 0-1.5-.2-10.6-5.4zm13.2-25.5c-.6-.2-1.1-.2-1.1-.2 0 .2-1.1 3.5-2.4 7.1-2.4 6.9-2.4 6.9-1.3 7.3 1.1.4 1.1.4 3.5-6.7s2.4-7.1 1.3-7.5zm-8 10.6c.6-.9.6-.9-1.1-2.2-.9-.6-1.7-1.3-1.7-1.5 0 0 .6-.6 1.5-1.3.9-.6 1.5-1.3 1.5-1.3s-.2-.4-.6-.9c-.6-.6-.6-.6-3.5 1.3-2.2 1.5-2.8 2.2-2.6 2.4.6.6 5.2 4.1 5.2 4.1.6.2.9-.2 1.3-.6zM33.5 26c1.5-1.1 2.6-2.2 2.6-2.2s-1.3-.9-2.8-1.9-2.8-1.9-2.8-1.9-.4.4-.6.9c-.6.9-.6.9 1.1 1.9.9.6 1.5 1.3 1.5 1.3s-.6.9-1.5 1.5c-1.1.9-1.5 1.3-1.3 1.5.6 1.1.9 1.3 1.3 1.3-.3-.3 1-1.3 2.5-2.4z" fill="#52616b"/>
</svg>