<svg xmlns="http://www.w3.org/2000/svg" viewBox="0 0 1024 1024">
	<path d="M282.2 710c0-34.4.5-60.7 1.4-65.4 5.7-33.1 24.4-59.1 52.5-73.2 22.1-11.1 25.1-11.4 88-11.4 53.6 0 55 0 58.4 2.7 7.7 6.1 7.3 1.6 7.3 107.6v97.3H453v-51.2H319v51.2h-36.7V710h-.1zM453 637.4v-40.7h-36.6c-32.2 0-37.8.2-46.8 2.7-13.2 3.4-27.3 10.7-33.4 17.7-10.9 12.3-15.1 24.4-16.7 47l-.9 14.1h134.2l.2-40.8zM544.1 765c-2.1-1.3-5.2-3.7-6.6-5.4-2.7-2.9-2.7-5-3-94.3-.2-66.8.2-92.5 1.2-95.3.7-2 3.2-5.2 5.5-7 3.9-3.2 3.9-3.2 69.8-2.9 65.9.3 65.8.4 74.6 3.8 21.8 8.4 36.6 21.6 46.2 41 8.4 16.6 10 26.1 10 58.7 0 38.5-3.2 51.6-17.7 70.8-8 10.5-17 17.6-30.2 23.9-17.9 8.7-22.3 9.1-87.8 9.1-54.2.1-58.3-.1-62-2.4zm132.3-39.8c8.2-3.8 18.7-12.7 21.6-18.5 4.1-8 5.7-16.7 6.6-34.4 1.7-42.8-5.2-60-29.3-71.2-7.7-3.7-7.7-3.7-56-4.1l-48.4-.5v133l49-.4c49-.4 49-.4 56.5-3.9zM454.7 485.8c-38.5-22.2-51.2-30.3-53.5-33.6-3-4.3-3-4.3-3-65.3 0-64.4 0-64.9 6.1-70.2 2.5-2.2 88.5-52.3 98.7-57.5 7-3.6 12.2-3.6 19.1 0 20.2 10.4 96.9 55.9 100.7 59.6 4.2 4.6 4.2 4.6 4.2 66.4 0 67.3.2 66.2-7.5 71.7-2 1.4-25.4 15.2-51.8 30.5-46.5 26.9-48.4 27.8-55.2 27.8-6.9.1-8.9-1-57.8-29.4zM526.5 347c-3.6-1.3-5.5-1.4-5.9-.7-.2.7-6.3 18.4-13.4 39.1-12.9 37.7-12.9 37.7-7.3 39.6 5.5 1.8 5.5 1.8 18.8-37.1 13.1-38.8 13.1-38.8 7.8-40.9zm-43.9 57.6c3.4-4.5 3.4-4.5-5.7-11.6-5-3.8-9.1-7.3-9.1-7.7.2-.4 3.9-3.4 8.6-7 4.7-3.4 8.6-6.7 8.6-7.2s-1.4-2.7-3.2-4.7c-3-3.9-3-3.9-18.4 7.1-12.2 8.8-15 11.3-13.7 12.6 3 3 27.8 22.9 28.6 22.9.5-.1 2.3-2.1 4.3-4.4zm81-8.5c7.9-6.3 14.3-11.6 14.2-11.7-.2 0-7-5-15.1-10.9-8.2-5.7-15.2-10.7-15.7-10.7s-2.2 2.1-3.8 4.6c-3 4.5-3 4.5 5.5 10.5 4.7 3.4 8.6 6.6 8.6 7.2 0 .7-3.8 4.2-8.6 7.9-5.4 4.3-8.2 7.3-7.7 8.2 4.1 6.3 5.2 7.5 6.6 7 1-.2 8.1-5.8 16-12.1z" fill="#52616b"/>
</svg>